<?xml version="1.0" encoding="utf-8"?>
<!-- Generator: Adobe Illustrator 14.0.0, SVG Export Plug-In . SVG Version: 6.00 Build 43363)  -->
<!DOCTYPE svg PUBLIC "-//W3C//DTD SVG 1.1//EN" "http://www.w3.org/Graphics/SVG/1.1/DTD/svg11.dtd">
<svg version="1.1" xmlns="http://www.w3.org/2000/svg" xmlns:xlink="http://www.w3.org/1999/xlink" x="0px" y="0px" width="16px"
	 height="16px" viewBox="0 0 16 16" enable-background="new 0 0 16 16" xml:space="preserve">
<g id="Слой_2_1_" display="none">
	<rect display="inline" fill="#092651" width="16" height="16"/>
</g>
<g id="Слой_1" display="none">
	<g id="Слой_1_1_">
		<path display="inline" fill="#F6F6F6" d="M1,0.8h2c0.552,0,1,0.448,1,1v1.6c0,0.552-0.448,1-1,1H1c-0.552,0-1-0.448-1-1V1.8
			C0,1.248,0.448,0.8,1,0.8z"/>
		<path display="inline" fill="#F6F6F6" d="M7,0.8h2c0.553,0,1,0.448,1,1v1.6c0,0.552-0.447,1-1,1H7c-0.552,0-1-0.448-1-1V1.8
			C6,1.248,6.448,0.8,7,0.8z"/>
		<path display="inline" fill="#F6F6F6" d="M13,0.8h2c0.553,0,1,0.448,1,1v1.6c0,0.552-0.447,1-1,1h-2c-0.553,0-1-0.448-1-1V1.8
			C12,1.248,12.447,0.8,13,0.8z"/>
		<path display="inline" fill="#F6F6F6" d="M1,6.2h2c0.552,0,1,0.447,1,1v1.6c0,0.552-0.448,1-1,1H1c-0.552,0-1-0.448-1-1V7.2
			C0,6.647,0.448,6.2,1,6.2z"/>
		<path display="inline" fill="#F6F6F6" d="M7,6.2h2c0.553,0,1,0.447,1,1v1.6c0,0.552-0.447,1-1,1H7c-0.552,0-1-0.448-1-1V7.2
			C6,6.647,6.448,6.2,7,6.2z"/>
		<path display="inline" fill="#F6F6F6" d="M13,6.2h2c0.553,0,1,0.447,1,1v1.6c0,0.552-0.447,1-1,1h-2c-0.553,0-1-0.448-1-1V7.2
			C12,6.647,12.447,6.2,13,6.2z"/>
		<path display="inline" fill="#F6F6F6" d="M1,11.6h2c0.552,0,1,0.448,1,1V14.2c0,0.552-0.448,1-1,1H1c-0.552,0-1-0.448-1-1V12.6
			C0,12.048,0.448,11.6,1,11.6z"/>
		<path display="inline" fill="#F6F6F6" d="M7,11.6h2c0.553,0,1,0.448,1,1V14.2c0,0.552-0.447,1-1,1H7c-0.552,0-1-0.448-1-1V12.6
			C6,12.048,6.448,11.6,7,11.6z"/>
		<path display="inline" fill="#F6F6F6" d="M13,11.6h2c0.553,0,1,0.448,1,1V14.2c0,0.552-0.447,1-1,1h-2c-0.553,0-1-0.448-1-1V12.6
			C12,12.048,12.447,11.6,13,11.6z"/>
	</g>
	<g id="Слой_2" display="inline">
		<path fill="none" stroke="#F6F6F6" stroke-width="2" stroke-linecap="round" stroke-linejoin="round" d="M13.834,14.763L8,10.975
			l-5.833,3.788V2.64c0-0.401,0.176-0.787,0.488-1.071c0.312-0.284,0.736-0.444,1.178-0.444h8.333c0.443,0,0.867,0.16,1.18,0.444
			c0.313,0.285,0.488,0.67,0.488,1.071V14.763z"/>
	</g>
</g>
<g id="Слой_4" display="none">
	<g id="Слой_2_2_" display="inline">
		<path fill="none" stroke="#A0CF4D" stroke-width="2" stroke-linecap="round" stroke-linejoin="round" d="M13.834,14.963L8,11.119
			l-5.833,3.844v-12.3c0-0.407,0.176-0.799,0.488-1.086c0.312-0.289,0.736-0.451,1.178-0.451h8.333c0.443,0,0.867,0.162,1.18,0.451
			c0.313,0.288,0.488,0.679,0.488,1.086V14.963z"/>
	</g>
</g>
<g id="Слой_3" display="none">
	<path display="inline" fill="#A0CF4D" d="M14.692,1.739H3.037c-0.48,0-0.87-0.39-0.87-0.87c0-0.48,0.389-0.87,0.87-0.87h11.655
		c0.48,0,0.87,0.389,0.87,0.87C15.562,1.35,15.173,1.739,14.692,1.739z"/>
</g>
<g id="Слой_5" display="none">
	<path display="inline" fill="none" stroke="#A0CF4D" stroke-width="2" stroke-linecap="round" stroke-linejoin="round" d="
		M13.813,14.899v-1.514c0-0.803-0.308-1.574-0.855-2.141c-0.548-0.568-1.291-0.888-2.065-0.888H5.047
		c-0.775,0-1.519,0.319-2.066,0.888c-0.547,0.566-0.855,1.338-0.855,2.141v1.514"/>
	<path display="inline" fill="none" stroke="#A0CF4D" stroke-width="2" stroke-linecap="round" stroke-linejoin="round" d="
		M7.969,7.33c1.614,0,2.922-1.355,2.922-3.027c0-1.673-1.309-3.028-2.922-3.028S5.047,2.63,5.047,4.303
		C5.047,5.974,6.355,7.33,7.969,7.33z"/>
</g>
<g id="Слой_6" display="none">
	<path display="inline" fill="#808386" d="M1.359,4.543c0-0.382,0.297-0.691,0.664-0.691h7.305c0.366,0,0.664,0.31,0.664,0.691V8
		v3.457c0,0.382-0.298,0.691-0.664,0.691H2.023c-0.367,0-0.664-0.31-0.664-0.691V4.543z M11.32,6.656V4.543
		c0-1.146-0.893-2.074-1.992-2.074H2.023c-1.1,0-1.992,0.929-1.992,2.074v6.914c0,1.146,0.892,2.074,1.992,2.074h7.305
		c1.1,0,1.992-0.929,1.992-2.074V9.343l3.599,2.677c0.202,0.15,0.469,0.17,0.69,0.053c0.22-0.119,0.359-0.355,0.359-0.615V4.543
		c0-0.259-0.14-0.496-0.359-0.615c-0.222-0.119-0.488-0.098-0.69,0.052L11.32,6.656z M14.641,10.114L11.8,8l2.841-2.113V10.114z"/>
</g>
<g id="Слой_7">
	<path fill="none" stroke="#A0CF4D" stroke-width="1.6" stroke-linecap="square" stroke-linejoin="round" d="M9.84,8.203
		 M10.367,8.232l-0.001-2.74c0-0.893-1.025-1.617-2.292-1.617h-4.72c-1.265,0-2.292,0.724-2.292,1.617v5.391
		c0,0.893,1.026,1.617,2.292,1.617h4.72c1.267,0,2.292-0.725,2.292-1.617L10.367,8.232 M14.969,10.882l-3.938-2.896l3.938-2.895
		V10.882z"/>
</g>
</svg>
