<svg width="18" height="14" viewBox="0 0 18 14" fill="none" xmlns="http://www.w3.org/2000/svg">
    <path d="M16.8022 12.8888H5.14693C4.66656 12.8888 4.27722 12.4995 4.27722 12.0191C4.27722 11.5388 4.66656 11.1494 5.14693 11.1494H16.8019C17.2822 11.1494 17.6716 11.5388 17.6716 12.0191C17.6716 12.4995 17.2825 12.8888 16.8022 12.8888Z" fill="#A0CF4D"/>
    <path d="M16.8022 7.4296H5.14693C4.66656 7.4296 4.27722 7.04026 4.27722 6.55989C4.27722 6.07952 4.66656 5.69019 5.14693 5.69019H16.8019C17.2822 5.69019 17.6716 6.07952 17.6716 6.55989C17.6719 7.04026 17.2825 7.4296 16.8022 7.4296Z" fill="#A0CF4D"/>
    <path d="M16.8022 1.97049H5.14693C4.66656 1.97049 4.27722 1.58115 4.27722 1.10079C4.27722 0.620418 4.66656 0.231079 5.14693 0.231079H16.8019C17.2822 0.231079 17.6716 0.620418 17.6716 1.10079C17.6716 1.58115 17.2825 1.97049 16.8022 1.97049Z" fill="#A0CF4D"/>
    <path d="M1.40971 2.33603C2.05479 2.33603 2.57773 1.81309 2.57773 1.16802C2.57773 0.522938 2.05479 0 1.40971 0C0.764638 0 0.241699 0.522938 0.241699 1.16802C0.241699 1.81309 0.764638 2.33603 1.40971 2.33603Z" fill="#A0CF4D"/>
    <path d="M1.40971 7.72788C2.05479 7.72788 2.57773 7.20494 2.57773 6.55986C2.57773 5.91478 2.05479 5.39185 1.40971 5.39185C0.764638 5.39185 0.241699 5.91478 0.241699 6.55986C0.241699 7.20494 0.764638 7.72788 1.40971 7.72788Z" fill="#A0CF4D"/>
    <path d="M1.40971 13.1198C2.05479 13.1198 2.57773 12.5969 2.57773 11.9518C2.57773 11.3068 2.05479 10.7838 1.40971 10.7838C0.764638 10.7838 0.241699 11.3068 0.241699 11.9518C0.241699 12.5969 0.764638 13.1198 1.40971 13.1198Z" fill="#A0CF4D"/>
</svg>