<svg width="18" height="14" viewBox="0 0 18 14" fill="none" xmlns="http://www.w3.org/2000/svg">
    <path d="M16.8021 12.8888H5.14687C4.6665 12.8888 4.27716 12.4995 4.27716 12.0191C4.27716 11.5388 4.6665 11.1494 5.14687 11.1494H16.8018C17.2822 11.1494 17.6715 11.5388 17.6715 12.0191C17.6715 12.4995 17.2825 12.8888 16.8021 12.8888Z" fill="#F6F6F6"/>
    <path d="M16.8021 7.4296H5.14687C4.6665 7.4296 4.27716 7.04026 4.27716 6.55989C4.27716 6.07952 4.6665 5.69019 5.14687 5.69019H16.8018C17.2822 5.69019 17.6715 6.07952 17.6715 6.55989C17.6718 7.04026 17.2825 7.4296 16.8021 7.4296Z" fill="#F6F6F6"/>
    <path d="M16.8021 1.97049H5.14687C4.6665 1.97049 4.27716 1.58115 4.27716 1.10079C4.27716 0.620418 4.6665 0.231079 5.14687 0.231079H16.8018C17.2822 0.231079 17.6715 0.620418 17.6715 1.10079C17.6715 1.58115 17.2825 1.97049 16.8021 1.97049Z" fill="#F6F6F6"/>
    <path d="M1.40971 2.33603C2.05479 2.33603 2.57773 1.81309 2.57773 1.16802C2.57773 0.522938 2.05479 0 1.40971 0C0.764638 0 0.241699 0.522938 0.241699 1.16802C0.241699 1.81309 0.764638 2.33603 1.40971 2.33603Z" fill="#F6F6F6"/>
    <path d="M1.40971 7.72788C2.05479 7.72788 2.57773 7.20494 2.57773 6.55986C2.57773 5.91478 2.05479 5.39185 1.40971 5.39185C0.764638 5.39185 0.241699 5.91478 0.241699 6.55986C0.241699 7.20494 0.764638 7.72788 1.40971 7.72788Z" fill="#F6F6F6"/>
    <path d="M1.40971 13.1198C2.05479 13.1198 2.57773 12.5969 2.57773 11.9518C2.57773 11.3068 2.05479 10.7838 1.40971 10.7838C0.764638 10.7838 0.241699 11.3068 0.241699 11.9518C0.241699 12.5969 0.764638 13.1198 1.40971 13.1198Z" fill="#F6F6F6"/>
</svg>