<svg width="13" height="12" viewBox="0 0 13 12" fill="none" xmlns="http://www.w3.org/2000/svg">
<path d="M12.5238 11.388L9.55479 8.47184C10.3512 7.57251 10.8334 6.39911 10.8334 5.11663C10.8334 2.29357 8.4956 0 5.62416 0C2.75 0 0.414917 2.29623 0.414917 5.11663C0.414917 7.93703 2.75271 10.2333 5.62416 10.2333C6.92985 10.2333 8.12448 9.75965 9.0401 8.97738L12.0091 11.8936C12.0795 11.9627 12.1743 12 12.2664 12C12.3585 12 12.4533 11.9654 12.5238 11.8936C12.6646 11.7552 12.6646 11.5264 12.5238 11.388ZM1.14361 5.11663C1.14361 2.69002 3.15363 0.718404 5.62145 0.718404C8.09198 0.718404 10.0993 2.69268 10.0993 5.11663C10.0993 7.54058 8.09198 9.51752 5.62145 9.51752C3.15363 9.51752 1.14361 7.54324 1.14361 5.11663Z" fill="#A0CF4D"/>
</svg>
