<svg width="64" height="64" viewBox="0 0 64 64" fill="none" xmlns="http://www.w3.org/2000/svg"><g clip-path="url(#clip0_9398_209277)"><path d="M29.0334 26.9922V37H27.7688V28.5713L25.2189 29.501V28.3594L28.8352 26.9922H29.0334ZM37.7557 27.0332H37.865V28.1064H37.7557C37.0857 28.1064 36.5252 28.2158 36.074 28.4346C35.6229 28.6488 35.2651 28.9382 35.0008 29.3027C34.7365 29.6628 34.5451 30.0684 34.4266 30.5195C34.3126 30.9707 34.2557 31.4287 34.2557 31.8936V33.3564C34.2557 33.7985 34.3081 34.1904 34.4129 34.5322C34.5177 34.8695 34.6613 35.1543 34.8436 35.3867C35.0258 35.6191 35.2309 35.7946 35.4588 35.9131C35.6912 36.0316 35.9327 36.0908 36.1834 36.0908C36.4751 36.0908 36.7348 36.0361 36.9627 35.9268C37.1906 35.8128 37.382 35.6556 37.5369 35.4551C37.6964 35.25 37.8172 35.0085 37.8992 34.7305C37.9812 34.4525 38.0223 34.1471 38.0223 33.8145C38.0223 33.5182 37.9858 33.2334 37.9129 32.96C37.84 32.682 37.7283 32.4359 37.5779 32.2217C37.4275 32.0029 37.2384 31.832 37.0105 31.709C36.7872 31.5814 36.5206 31.5176 36.2107 31.5176C35.8598 31.5176 35.5317 31.6042 35.2264 31.7773C34.9256 31.946 34.6772 32.1693 34.4812 32.4473C34.2898 32.7207 34.1805 33.0192 34.1531 33.3428L33.4832 33.3359C33.547 32.8255 33.6655 32.3903 33.8387 32.0303C34.0164 31.6657 34.2352 31.3695 34.4949 31.1416C34.7592 30.9092 35.0532 30.7406 35.3768 30.6357C35.7049 30.5264 36.0512 30.4717 36.4158 30.4717C36.9126 30.4717 37.341 30.5651 37.701 30.752C38.061 30.9388 38.3572 31.1895 38.5896 31.5039C38.8221 31.8138 38.993 32.1647 39.1023 32.5566C39.2163 32.944 39.2732 33.3428 39.2732 33.7529C39.2732 34.2223 39.2072 34.6621 39.075 35.0723C38.9428 35.4824 38.7446 35.8424 38.4803 36.1523C38.2205 36.4622 37.8992 36.7038 37.5164 36.877C37.1336 37.0501 36.6893 37.1367 36.1834 37.1367C35.6456 37.1367 35.1762 37.0273 34.7752 36.8086C34.3742 36.5853 34.0415 36.2891 33.7771 35.9199C33.5128 35.5508 33.3146 35.1406 33.1824 34.6895C33.0503 34.2383 32.9842 33.7803 32.9842 33.3154V32.7207C32.9842 32.0189 33.0548 31.3307 33.1961 30.6562C33.3374 29.9818 33.5812 29.3711 33.9275 28.8242C34.2785 28.2773 34.7638 27.8421 35.3836 27.5186C36.0034 27.195 36.7941 27.0332 37.7557 27.0332Z" fill="white"></path><rect width="64" height="64" fill="#616161"></rect><rect y="31" width="64" height="2" fill="#323232"></rect><rect y="47" width="64" height="2" fill="#323232"></rect><rect y="15" width="64" height="2" fill="#323232"></rect><rect x="31" width="2" height="64" fill="#323232"></rect><rect x="47" width="2" height="64" fill="#323232"></rect><rect x="15" width="2" height="64" fill="#323232"></rect></g><defs><clipPath id="clip0_9398_209277"><rect width="64" height="64" rx="4" fill="white"></rect></clipPath></defs></svg>