<svg width="64" height="64" viewBox="0 0 64 64" fill="none" xmlns="http://www.w3.org/2000/svg"><g clip-path="url(#clip0_9398_209248)"><rect width="64" height="64" rx="4" fill="white"></rect><path d="M30.0996 35.7012H30.2363C30.8652 35.7012 31.3893 35.6191 31.8086 35.4551C32.2324 35.2865 32.5697 35.054 32.8203 34.7578C33.071 34.4616 33.251 34.113 33.3604 33.7119C33.4697 33.3109 33.5244 32.8757 33.5244 32.4062V30.6904C33.5244 30.2848 33.4811 29.9294 33.3945 29.624C33.3125 29.3141 33.194 29.0566 33.0391 28.8516C32.8887 28.6419 32.7132 28.4847 32.5127 28.3799C32.3167 28.2751 32.1048 28.2227 31.877 28.2227C31.6263 28.2227 31.4007 28.2796 31.2002 28.3936C31.0042 28.5029 30.8379 28.6556 30.7012 28.8516C30.569 29.043 30.4665 29.2686 30.3936 29.5283C30.3252 29.7835 30.291 30.057 30.291 30.3486C30.291 30.6221 30.3229 30.8864 30.3867 31.1416C30.4551 31.3923 30.5553 31.6156 30.6875 31.8115C30.8197 32.0075 30.986 32.1624 31.1865 32.2764C31.387 32.3903 31.6217 32.4473 31.8906 32.4473C32.1458 32.4473 32.3805 32.3994 32.5947 32.3037C32.8089 32.2035 32.9958 32.069 33.1553 31.9004C33.3148 31.7318 33.4401 31.5426 33.5312 31.333C33.6224 31.1234 33.6725 30.9092 33.6816 30.6904L34.3105 30.8818C34.3105 31.2282 34.2376 31.57 34.0918 31.9072C33.9505 32.2399 33.7523 32.5452 33.4971 32.8232C33.2464 33.0967 32.9525 33.3154 32.6152 33.4795C32.2826 33.6436 31.9202 33.7256 31.5283 33.7256C31.0544 33.7256 30.6351 33.6367 30.2705 33.459C29.9105 33.2767 29.6097 33.0306 29.3682 32.7207C29.1312 32.4108 28.9535 32.0553 28.835 31.6543C28.7165 31.2533 28.6572 30.8317 28.6572 30.3896C28.6572 29.9111 28.7301 29.4622 28.876 29.043C29.0218 28.6237 29.2337 28.2546 29.5117 27.9355C29.7897 27.612 30.127 27.3613 30.5234 27.1836C30.9245 27.0013 31.3779 26.9102 31.8838 26.9102C32.4215 26.9102 32.8932 27.015 33.2988 27.2246C33.7044 27.4342 34.0462 27.7236 34.3242 28.0928C34.6022 28.4619 34.8118 28.8903 34.9531 29.3779C35.0944 29.8656 35.165 30.3896 35.165 30.9502V31.5312C35.165 32.1191 35.1126 32.6865 35.0078 33.2334C34.903 33.7757 34.7321 34.2793 34.4951 34.7441C34.2627 35.2044 33.9551 35.61 33.5723 35.9609C33.194 36.3073 32.7292 36.5785 32.1777 36.7744C31.6309 36.9658 30.9883 37.0615 30.25 37.0615H30.0996V35.7012Z" fill="white"></path><rect width="64" height="64" fill="#616161"></rect><rect y="42" width="64" height="2" fill="#323232"></rect><rect y="21" width="64" height="2" fill="#323232"></rect><rect x="21" width="2" height="64" fill="#323232"></rect><rect x="42" width="2" height="64" fill="#323232"></rect></g><defs><clipPath id="clip0_9398_209248"><rect width="64" height="64" rx="4" fill="white"></rect></clipPath></defs></svg>