<svg width="64" height="64" viewBox="0 0 64 64" fill="none" xmlns="http://www.w3.org/2000/svg"><g clip-path="url(#clip0_9398_228060)"><path d="M33.7432 27.0332H33.8525V28.1064H33.7432C33.0732 28.1064 32.5127 28.2158 32.0615 28.4346C31.6104 28.6488 31.2526 28.9382 30.9883 29.3027C30.724 29.6628 30.5326 30.0684 30.4141 30.5195C30.3001 30.9707 30.2432 31.4287 30.2432 31.8936V33.3564C30.2432 33.7985 30.2956 34.1904 30.4004 34.5322C30.5052 34.8695 30.6488 35.1543 30.8311 35.3867C31.0133 35.6191 31.2184 35.7946 31.4463 35.9131C31.6787 36.0316 31.9202 36.0908 32.1709 36.0908C32.4626 36.0908 32.7223 36.0361 32.9502 35.9268C33.1781 35.8128 33.3695 35.6556 33.5244 35.4551C33.6839 35.25 33.8047 35.0085 33.8867 34.7305C33.9688 34.4525 34.0098 34.1471 34.0098 33.8145C34.0098 33.5182 33.9733 33.2334 33.9004 32.96C33.8275 32.682 33.7158 32.4359 33.5654 32.2217C33.415 32.0029 33.2259 31.832 32.998 31.709C32.7747 31.5814 32.5081 31.5176 32.1982 31.5176C31.8473 31.5176 31.5192 31.6042 31.2139 31.7773C30.9131 31.946 30.6647 32.1693 30.4688 32.4473C30.2773 32.7207 30.168 33.0192 30.1406 33.3428L29.4707 33.3359C29.5345 32.8255 29.653 32.3903 29.8262 32.0303C30.0039 31.6657 30.2227 31.3695 30.4824 31.1416C30.7467 30.9092 31.0407 30.7406 31.3643 30.6357C31.6924 30.5264 32.0387 30.4717 32.4033 30.4717C32.9001 30.4717 33.3285 30.5651 33.6885 30.752C34.0485 30.9388 34.3447 31.1895 34.5771 31.5039C34.8096 31.8138 34.9805 32.1647 35.0898 32.5566C35.2038 32.944 35.2607 33.3428 35.2607 33.7529C35.2607 34.2223 35.1947 34.6621 35.0625 35.0723C34.9303 35.4824 34.7321 35.8424 34.4678 36.1523C34.208 36.4622 33.8867 36.7038 33.5039 36.877C33.1211 37.0501 32.6768 37.1367 32.1709 37.1367C31.6331 37.1367 31.1637 37.0273 30.7627 36.8086C30.3617 36.5853 30.029 36.2891 29.7646 35.9199C29.5003 35.5508 29.3021 35.1406 29.1699 34.6895C29.0378 34.2383 28.9717 33.7803 28.9717 33.3154V32.7207C28.9717 32.0189 29.0423 31.3307 29.1836 30.6562C29.3249 29.9818 29.5687 29.3711 29.915 28.8242C30.266 28.2773 30.7513 27.8421 31.3711 27.5186C31.9909 27.195 32.7816 27.0332 33.7432 27.0332Z" fill="white"></path><rect width="64" height="64" fill="#616161"></rect><rect x="44" y="20" width="20" height="2" fill="#323232"></rect><rect y="42" width="64" height="2" fill="#323232"></rect><rect x="20" y="42" width="2" height="22" fill="#323232"></rect><rect x="42" width="2" height="64" fill="#323232"></rect></g><defs><clipPath id="clip0_9398_228060"><rect width="64" height="64" rx="4" fill="white"></rect></clipPath></defs></svg>