<svg width="64" height="64" viewBox="0 0 64 64" fill="none" xmlns="http://www.w3.org/2000/svg"><g clip-path="url(#clip0_9398_209352)"><path d="M28.593 27.0127V37H26.9455V28.9678L24.5051 29.7949V28.4346L28.3947 27.0127H28.593ZM38.9393 31.1895V32.8164C38.9393 33.5957 38.8618 34.2611 38.7068 34.8125C38.5564 35.3594 38.3377 35.8037 38.0506 36.1455C37.7635 36.4873 37.4194 36.738 37.0184 36.8975C36.6219 37.057 36.1775 37.1367 35.6854 37.1367C35.2934 37.1367 34.9288 37.0866 34.5916 36.9863C34.2589 36.8861 33.9581 36.7288 33.6893 36.5146C33.4204 36.3005 33.1902 36.0247 32.9988 35.6875C32.812 35.3457 32.6661 34.9378 32.5613 34.4639C32.4611 33.9899 32.4109 33.4408 32.4109 32.8164V31.1895C32.4109 30.4056 32.4884 29.7448 32.6434 29.207C32.7983 28.6647 33.0193 28.2249 33.3064 27.8877C33.5936 27.5459 33.9354 27.2975 34.3318 27.1426C34.7329 26.9876 35.1795 26.9102 35.6717 26.9102C36.0682 26.9102 36.4327 26.9603 36.7654 27.0605C37.1027 27.1562 37.4035 27.3089 37.6678 27.5186C37.9367 27.7282 38.1645 28.0016 38.3514 28.3389C38.5428 28.6715 38.6886 29.0749 38.7889 29.5488C38.8891 30.0182 38.9393 30.5651 38.9393 31.1895ZM37.2918 33.0488V30.9434C37.2918 30.5469 37.269 30.1982 37.2234 29.8975C37.1779 29.5921 37.1095 29.3346 37.0184 29.125C36.9318 28.9108 36.8224 28.7376 36.6902 28.6055C36.5581 28.4688 36.4077 28.3708 36.2391 28.3115C36.0704 28.2477 35.8813 28.2158 35.6717 28.2158C35.4165 28.2158 35.1886 28.266 34.9881 28.3662C34.7876 28.4619 34.6189 28.6169 34.4822 28.8311C34.3455 29.0452 34.2407 29.3278 34.1678 29.6787C34.0994 30.0251 34.0652 30.4466 34.0652 30.9434V33.0488C34.0652 33.4499 34.088 33.8031 34.1336 34.1084C34.1792 34.4137 34.2475 34.6758 34.3387 34.8945C34.4298 35.1087 34.5392 35.2865 34.6668 35.4277C34.799 35.5645 34.9493 35.6647 35.118 35.7285C35.2911 35.7923 35.4803 35.8242 35.6854 35.8242C35.9451 35.8242 36.1753 35.7741 36.3758 35.6738C36.5763 35.5736 36.7449 35.4141 36.8816 35.1953C37.0184 34.972 37.1209 34.6826 37.1893 34.3271C37.2576 33.9717 37.2918 33.5456 37.2918 33.0488Z" fill="white"></path><rect width="64" height="64" fill="#616161"></rect><rect x="53" y="25" width="11" height="2" fill="#323232"></rect><rect x="53" y="38" width="11" height="2" fill="#323232"></rect><rect y="51" width="64" height="2" fill="#323232"></rect><rect x="53" y="12" width="11" height="2" fill="#323232"></rect><rect x="25" y="52" width="2" height="12" fill="#323232"></rect><rect x="38" y="52" width="2" height="12" fill="#323232"></rect><rect x="51" width="2" height="64" fill="#323232"></rect><rect x="12" y="52" width="2" height="12" fill="#323232"></rect></g><defs><clipPath id="clip0_9398_209352"><rect width="64" height="64" rx="4" fill="white"></rect></clipPath></defs></svg>