<svg width="64" height="64" viewBox="0 0 64 64" fill="none" xmlns="http://www.w3.org/2000/svg"><g clip-path="url(#clip0_9398_209371)"><path d="M28.593 27.0127V37H26.9455V28.9678L24.5051 29.7949V28.4346L28.3947 27.0127H28.593ZM39.1238 35.6875V37H32.452V35.8721L35.6922 32.3379C36.0477 31.9368 36.3279 31.5905 36.533 31.2988C36.7381 31.0072 36.8816 30.7451 36.9637 30.5127C37.0503 30.2757 37.0936 30.0456 37.0936 29.8223C37.0936 29.5078 37.0343 29.2321 36.9158 28.9951C36.8019 28.7536 36.6333 28.5645 36.41 28.4277C36.1867 28.2865 35.9155 28.2158 35.5965 28.2158C35.2273 28.2158 34.9174 28.2956 34.6668 28.4551C34.4161 28.6146 34.227 28.8356 34.0994 29.1182C33.9718 29.3962 33.908 29.7152 33.908 30.0752H32.2605C32.2605 29.4964 32.3927 28.9678 32.657 28.4893C32.9214 28.0062 33.3042 27.6234 33.8055 27.3408C34.3068 27.0537 34.9106 26.9102 35.617 26.9102C36.2824 26.9102 36.8475 27.0218 37.3123 27.2451C37.7771 27.4684 38.1303 27.7852 38.3719 28.1953C38.618 28.6055 38.741 29.0908 38.741 29.6514C38.741 29.9613 38.6909 30.2689 38.5906 30.5742C38.4904 30.8796 38.3468 31.1849 38.16 31.4902C37.9777 31.791 37.7612 32.0941 37.5105 32.3994C37.2599 32.7002 36.9842 33.0055 36.6834 33.3154L34.5301 35.6875H39.1238Z" fill="white"></path><rect width="64" height="64" fill="#616161"></rect><rect x="55" y="31" width="9" height="2" fill="#323232"></rect><rect x="55" y="42" width="9" height="2" fill="#323232"></rect><rect y="53" width="64" height="2" fill="#323232"></rect><rect x="55" y="9" width="9" height="2" fill="#323232"></rect><rect x="55" y="20" width="9" height="2" fill="#323232"></rect><rect x="31" y="55" width="2" height="9" fill="#323232"></rect><rect x="42" y="55" width="2" height="9" fill="#323232"></rect><rect x="53" width="2" height="64" fill="#323232"></rect><rect x="20" y="55" width="2" height="9" fill="#323232"></rect><rect x="9" y="55" width="2" height="9" fill="#323232"></rect></g><defs><clipPath id="clip0_9398_209371"><rect width="64" height="64" rx="4" fill="white"></rect></clipPath></defs></svg>