<svg width="64" height="64" viewBox="0 0 64 64" fill="none" xmlns="http://www.w3.org/2000/svg"><g clip-path="url(#clip0_9398_209385)"><path d="M35.2812 34.2861C35.2812 34.9059 35.1377 35.4277 34.8506 35.8516C34.5635 36.2754 34.1715 36.5967 33.6748 36.8154C33.1826 37.0296 32.6266 37.1367 32.0068 37.1367C31.387 37.1367 30.8288 37.0296 30.332 36.8154C29.8353 36.5967 29.4434 36.2754 29.1562 35.8516C28.8691 35.4277 28.7256 34.9059 28.7256 34.2861C28.7256 33.876 28.8053 33.5046 28.9648 33.1719C29.1243 32.8346 29.3499 32.5452 29.6416 32.3037C29.9378 32.0576 30.2842 31.8685 30.6807 31.7363C31.0817 31.6042 31.5192 31.5381 31.9932 31.5381C32.6221 31.5381 33.1849 31.6543 33.6816 31.8867C34.1784 32.1191 34.568 32.4404 34.8506 32.8506C35.1377 33.2607 35.2812 33.7393 35.2812 34.2861ZM33.627 34.2041C33.627 33.8714 33.5586 33.5798 33.4219 33.3291C33.2852 33.0785 33.0938 32.8848 32.8477 32.748C32.6016 32.6113 32.3167 32.543 31.9932 32.543C31.665 32.543 31.3802 32.6113 31.1387 32.748C30.8971 32.8848 30.708 33.0785 30.5713 33.3291C30.4391 33.5798 30.373 33.8714 30.373 34.2041C30.373 34.5413 30.4391 34.833 30.5713 35.0791C30.7035 35.3206 30.8926 35.5052 31.1387 35.6328C31.3848 35.7604 31.6742 35.8242 32.0068 35.8242C32.3395 35.8242 32.6266 35.7604 32.8682 35.6328C33.1097 35.5052 33.2965 35.3206 33.4287 35.0791C33.5609 34.833 33.627 34.5413 33.627 34.2041ZM35.0557 29.665C35.0557 30.1618 34.9235 30.6038 34.6592 30.9912C34.3994 31.3786 34.0394 31.6839 33.5791 31.9072C33.1188 32.126 32.5947 32.2354 32.0068 32.2354C31.4144 32.2354 30.8857 32.126 30.4209 31.9072C29.9606 31.6839 29.5983 31.3786 29.334 30.9912C29.0742 30.6038 28.9443 30.1618 28.9443 29.665C28.9443 29.0726 29.0742 28.5736 29.334 28.168C29.5983 27.7578 29.9606 27.4456 30.4209 27.2314C30.8812 27.0173 31.4076 26.9102 32 26.9102C32.5924 26.9102 33.1188 27.0173 33.5791 27.2314C34.0394 27.4456 34.3994 27.7578 34.6592 28.168C34.9235 28.5736 35.0557 29.0726 35.0557 29.665ZM33.4082 29.7197C33.4082 29.4235 33.349 29.1637 33.2305 28.9404C33.1165 28.7126 32.9548 28.5348 32.7451 28.4072C32.5355 28.2796 32.2871 28.2158 32 28.2158C31.7129 28.2158 31.4645 28.2773 31.2549 28.4004C31.0452 28.5234 30.8835 28.6966 30.7695 28.9199C30.6556 29.1432 30.5986 29.4098 30.5986 29.7197C30.5986 30.0251 30.6556 30.2917 30.7695 30.5195C30.8835 30.7428 31.0452 30.9183 31.2549 31.0459C31.4691 31.1735 31.7197 31.2373 32.0068 31.2373C32.2939 31.2373 32.5423 31.1735 32.752 31.0459C32.9616 30.9183 33.1234 30.7428 33.2373 30.5195C33.3512 30.2917 33.4082 30.0251 33.4082 29.7197Z" fill="white"></path><rect width="64" height="64" fill="#616161"></rect><rect x="49" y="15" width="15" height="2" fill="#323232"></rect><rect x="49" y="31" width="15" height="2" fill="#323232"></rect><rect y="47" width="64" height="2" fill="#323232"></rect><rect x="31" y="47" width="2" height="17" fill="#323232"></rect><rect x="47" width="2" height="64" fill="#323232"></rect><rect x="14" y="47" width="2" height="17" fill="#323232"></rect></g><defs><clipPath id="clip0_9398_209385"><rect width="64" height="64" rx="4" fill="white"></rect></clipPath></defs></svg>