<svg width="64" height="64" viewBox="0 0 64 64" fill="none" xmlns="http://www.w3.org/2000/svg"><g clip-path="url(#clip0_9398_209334)"><path d="M28.593 27.0127V37H26.9455V28.9678L24.5051 29.7949V28.4346L28.3947 27.0127H28.593ZM37.4285 26.9854H37.6336V28.332H37.5174C36.9295 28.332 36.4214 28.4232 35.993 28.6055C35.5691 28.7878 35.2205 29.0384 34.9471 29.3574C34.6736 29.6764 34.4686 30.0501 34.3318 30.4785C34.1997 30.9023 34.1336 31.3535 34.1336 31.832V33.3975C34.1336 33.7939 34.1769 34.1449 34.2635 34.4502C34.3501 34.751 34.4708 35.0039 34.6258 35.209C34.7853 35.4095 34.9676 35.5622 35.1727 35.667C35.3777 35.7718 35.5988 35.8242 35.8357 35.8242C36.0818 35.8242 36.3051 35.7741 36.5057 35.6738C36.7062 35.569 36.8771 35.4255 37.0184 35.2432C37.1596 35.0609 37.2667 34.8444 37.3396 34.5938C37.4126 34.3431 37.449 34.0697 37.449 33.7734C37.449 33.4909 37.4126 33.2266 37.3396 32.9805C37.2713 32.7298 37.1687 32.5111 37.032 32.3242C36.8953 32.1328 36.7244 31.9847 36.5193 31.8799C36.3188 31.7705 36.0864 31.7158 35.8221 31.7158C35.4939 31.7158 35.1954 31.7933 34.9266 31.9482C34.6622 32.1032 34.448 32.306 34.284 32.5566C34.1245 32.8027 34.0379 33.0648 34.0242 33.3428L33.3953 33.1377C33.4318 32.7139 33.5252 32.3333 33.6756 31.9961C33.8305 31.6589 34.0333 31.3717 34.284 31.1348C34.5346 30.8978 34.824 30.7178 35.1521 30.5947C35.4848 30.4671 35.8494 30.4033 36.2459 30.4033C36.729 30.4033 37.1482 30.4945 37.5037 30.6768C37.8592 30.859 38.1531 31.1074 38.3855 31.4219C38.6225 31.7318 38.798 32.0872 38.9119 32.4883C39.0304 32.8848 39.0896 33.2995 39.0896 33.7324C39.0896 34.2109 39.0167 34.6576 38.8709 35.0723C38.7251 35.4824 38.5109 35.8424 38.2283 36.1523C37.9503 36.4622 37.6108 36.7038 37.2098 36.877C36.8133 37.0501 36.3621 37.1367 35.8562 37.1367C35.323 37.1367 34.8468 37.0342 34.4275 36.8291C34.0128 36.624 33.6596 36.3415 33.368 35.9814C33.0809 35.6214 32.8621 35.2067 32.7117 34.7373C32.5613 34.2679 32.4861 33.7712 32.4861 33.2471V32.5635C32.4861 31.807 32.5818 31.0938 32.7732 30.4238C32.9646 29.7493 33.2586 29.1546 33.6551 28.6396C34.0561 28.1247 34.5688 27.7214 35.1932 27.4297C35.8175 27.1335 36.5626 26.9854 37.4285 26.9854Z" fill="white"></path><rect width="64" height="64" fill="#616161"></rect><rect x="57" y="31" width="7" height="2" fill="#323232"></rect><rect x="57" y="47" width="7" height="2" fill="#323232"></rect><rect y="55" width="64" height="2" fill="#323232"></rect><rect x="57" y="39" width="7" height="2" fill="#323232"></rect><rect x="57" y="15" width="7" height="2" fill="#323232"></rect><rect x="57" y="23" width="7" height="2" fill="#323232"></rect><rect x="57" y="7" width="7" height="2" fill="#323232"></rect><rect x="31" y="56" width="2" height="8" fill="#323232"></rect><rect x="23" y="56" width="2" height="8" fill="#323232"></rect><rect x="47" y="56" width="2" height="8" fill="#323232"></rect><rect x="39" y="56" width="2" height="8" fill="#323232"></rect><rect x="55" width="2" height="64" fill="#323232"></rect><rect x="15" y="56" width="2" height="8" fill="#323232"></rect><rect x="7" y="56" width="2" height="8" fill="#323232"></rect></g><defs><clipPath id="clip0_9398_209334"><rect width="64" height="64" rx="4" fill="white"></rect></clipPath></defs></svg>