<svg width="64" height="64" viewBox="0 0 64 64" fill="none" xmlns="http://www.w3.org/2000/svg"><g clip-path="url(#clip0_9398_209551)"><path d="M28.593 27.0127V37H26.9455V28.9678L24.5051 29.7949V28.4346L28.3947 27.0127H28.593ZM34.3865 31.2783H35.3709C35.7537 31.2783 36.0704 31.2122 36.3211 31.0801C36.5763 30.9479 36.7654 30.7656 36.8885 30.5332C37.0115 30.3008 37.073 30.0342 37.073 29.7334C37.073 29.4189 37.0161 29.1501 36.9021 28.9268C36.7928 28.6989 36.6242 28.5234 36.3963 28.4004C36.173 28.2773 35.8882 28.2158 35.5418 28.2158C35.2501 28.2158 34.9858 28.2751 34.7488 28.3936C34.5164 28.5075 34.3318 28.6715 34.1951 28.8857C34.0584 29.0954 33.99 29.346 33.99 29.6377H32.3357C32.3357 29.109 32.4747 28.6396 32.7527 28.2295C33.0307 27.8193 33.409 27.498 33.8875 27.2656C34.3706 27.0286 34.9129 26.9102 35.5145 26.9102C36.157 26.9102 36.7176 27.0173 37.1961 27.2314C37.6792 27.4411 38.0551 27.7555 38.324 28.1748C38.5929 28.5941 38.7273 29.1136 38.7273 29.7334C38.7273 30.016 38.6613 30.3031 38.5291 30.5947C38.3969 30.8864 38.201 31.153 37.9412 31.3945C37.6814 31.6315 37.3579 31.8252 36.9705 31.9756C36.5831 32.1214 36.1342 32.1943 35.6238 32.1943H34.3865V31.2783ZM34.3865 32.5635V31.6611H35.6238C36.2072 31.6611 36.7039 31.7295 37.1141 31.8662C37.5288 32.0029 37.866 32.1921 38.1258 32.4336C38.3855 32.6706 38.5747 32.9417 38.6932 33.2471C38.8162 33.5524 38.8777 33.876 38.8777 34.2178C38.8777 34.6826 38.7934 35.0973 38.6248 35.4619C38.4607 35.8219 38.226 36.1273 37.9207 36.3779C37.6154 36.6286 37.2576 36.8177 36.8475 36.9453C36.4419 37.0729 35.9998 37.1367 35.5213 37.1367C35.0929 37.1367 34.6827 37.0775 34.2908 36.959C33.8989 36.8405 33.548 36.665 33.2381 36.4326C32.9282 36.1956 32.6821 35.9017 32.4998 35.5508C32.3221 35.1953 32.2332 34.7852 32.2332 34.3203H33.8807C33.8807 34.6165 33.949 34.8786 34.0857 35.1064C34.227 35.3298 34.423 35.5052 34.6736 35.6328C34.9288 35.7604 35.2205 35.8242 35.5486 35.8242C35.895 35.8242 36.1935 35.7627 36.4441 35.6396C36.6948 35.5166 36.8862 35.3343 37.0184 35.0928C37.1551 34.8512 37.2234 34.5596 37.2234 34.2178C37.2234 33.8304 37.1482 33.516 36.9979 33.2744C36.8475 33.0329 36.6333 32.8551 36.3553 32.7412C36.0773 32.6227 35.7492 32.5635 35.3709 32.5635H34.3865Z" fill="white"></path><rect width="64" height="64" fill="#616161"></rect><rect x="49" y="31" width="15" height="2" fill="#323232"></rect><rect y="31" width="17" height="2" fill="#323232"></rect><rect y="47" width="64" height="2" fill="#323232"></rect><rect y="15" width="64" height="2" fill="#323232"></rect><rect x="31" y="47" width="2" height="17" fill="#323232"></rect><rect x="31" width="2" height="17" fill="#323232"></rect><rect x="47" width="2" height="64" fill="#323232"></rect><rect x="15" width="2" height="64" fill="#323232"></rect></g><defs><clipPath id="clip0_9398_209551"><rect width="64" height="64" rx="4" fill="white"></rect></clipPath></defs></svg>