<svg width="64" height="64" viewBox="0 0 64 64" fill="none" xmlns="http://www.w3.org/2000/svg"><g clip-path="url(#clip0_9398_209503)"><path d="M35.4453 35.6875V37H28.7734V35.8721L32.0137 32.3379C32.3691 31.9368 32.6494 31.5905 32.8545 31.2988C33.0596 31.0072 33.2031 30.7451 33.2852 30.5127C33.3717 30.2757 33.415 30.0456 33.415 29.8223C33.415 29.5078 33.3558 29.2321 33.2373 28.9951C33.1234 28.7536 32.9548 28.5645 32.7314 28.4277C32.5081 28.2865 32.237 28.2158 31.918 28.2158C31.5488 28.2158 31.2389 28.2956 30.9883 28.4551C30.7376 28.6146 30.5485 28.8356 30.4209 29.1182C30.2933 29.3962 30.2295 29.7152 30.2295 30.0752H28.582C28.582 29.4964 28.7142 28.9678 28.9785 28.4893C29.2428 28.0062 29.6257 27.6234 30.127 27.3408C30.6283 27.0537 31.2321 26.9102 31.9385 26.9102C32.6038 26.9102 33.1689 27.0218 33.6338 27.2451C34.0986 27.4684 34.4518 27.7852 34.6934 28.1953C34.9395 28.6055 35.0625 29.0908 35.0625 29.6514C35.0625 29.9613 35.0124 30.2689 34.9121 30.5742C34.8118 30.8796 34.6683 31.1849 34.4814 31.4902C34.2992 31.791 34.0827 32.0941 33.832 32.3994C33.5814 32.7002 33.3057 33.0055 33.0049 33.3154L30.8516 35.6875H35.4453Z" fill="white"></path><rect width="64" height="64" fill="#616161"></rect><rect y="31" width="64" height="2" fill="#323232"></rect></g><defs><clipPath id="clip0_9398_209503"><rect width="64" height="64" rx="4" fill="white"></rect></clipPath></defs></svg>