<svg width="64" height="64" viewBox="0 0 64 64" fill="none" xmlns="http://www.w3.org/2000/svg"><g clip-path="url(#clip0_9398_209509)"><path d="M30.708 31.2783H31.6924C32.0752 31.2783 32.3919 31.2122 32.6426 31.0801C32.8978 30.9479 33.0869 30.7656 33.21 30.5332C33.333 30.3008 33.3945 30.0342 33.3945 29.7334C33.3945 29.4189 33.3376 29.1501 33.2236 28.9268C33.1143 28.6989 32.9456 28.5234 32.7178 28.4004C32.4945 28.2773 32.2096 28.2158 31.8633 28.2158C31.5716 28.2158 31.3073 28.2751 31.0703 28.3936C30.8379 28.5075 30.6533 28.6715 30.5166 28.8857C30.3799 29.0954 30.3115 29.346 30.3115 29.6377H28.6572C28.6572 29.109 28.7962 28.6396 29.0742 28.2295C29.3522 27.8193 29.7305 27.498 30.209 27.2656C30.6921 27.0286 31.2344 26.9102 31.8359 26.9102C32.4785 26.9102 33.0391 27.0173 33.5176 27.2314C34.0007 27.4411 34.3766 27.7555 34.6455 28.1748C34.9144 28.5941 35.0488 29.1136 35.0488 29.7334C35.0488 30.016 34.9827 30.3031 34.8506 30.5947C34.7184 30.8864 34.5225 31.153 34.2627 31.3945C34.0029 31.6315 33.6794 31.8252 33.292 31.9756C32.9046 32.1214 32.4557 32.1943 31.9453 32.1943H30.708V31.2783ZM30.708 32.5635V31.6611H31.9453C32.5286 31.6611 33.0254 31.7295 33.4355 31.8662C33.8503 32.0029 34.1875 32.1921 34.4473 32.4336C34.707 32.6706 34.8962 32.9417 35.0146 33.2471C35.1377 33.5524 35.1992 33.876 35.1992 34.2178C35.1992 34.6826 35.1149 35.0973 34.9463 35.4619C34.7822 35.8219 34.5475 36.1273 34.2422 36.3779C33.9368 36.6286 33.5791 36.8177 33.1689 36.9453C32.7633 37.0729 32.3213 37.1367 31.8428 37.1367C31.4144 37.1367 31.0042 37.0775 30.6123 36.959C30.2204 36.8405 29.8695 36.665 29.5596 36.4326C29.2497 36.1956 29.0036 35.9017 28.8213 35.5508C28.6436 35.1953 28.5547 34.7852 28.5547 34.3203H30.2021C30.2021 34.6165 30.2705 34.8786 30.4072 35.1064C30.5485 35.3298 30.7445 35.5052 30.9951 35.6328C31.2503 35.7604 31.542 35.8242 31.8701 35.8242C32.2165 35.8242 32.515 35.7627 32.7656 35.6396C33.0163 35.5166 33.2077 35.3343 33.3398 35.0928C33.4766 34.8512 33.5449 34.5596 33.5449 34.2178C33.5449 33.8304 33.4697 33.516 33.3193 33.2744C33.1689 33.0329 32.9548 32.8551 32.6768 32.7412C32.3988 32.6227 32.0706 32.5635 31.6924 32.5635H30.708Z" fill="white"></path><rect width="64" height="64" fill="#616161"></rect><rect y="31" width="64" height="2" fill="#323232"></rect><rect x="30.5" y="31" width="2" height="33" fill="#323232"></rect></g><defs><clipPath id="clip0_9398_209509"><rect width="64" height="64" rx="4" fill="white"></rect></clipPath></defs></svg>