<svg width="64" height="64" viewBox="0 0 64 64" fill="none" xmlns="http://www.w3.org/2000/svg"><g clip-path="url(#clip0_9398_209521)"><path d="M30.5029 32.3721L29.1904 32.0508L29.7305 27.0469H35.0967V28.4414H31.0977L30.8242 30.8818C30.9792 30.7907 31.1934 30.7018 31.4668 30.6152C31.7402 30.5241 32.0524 30.4785 32.4033 30.4785C32.8727 30.4785 33.292 30.556 33.6611 30.7109C34.0348 30.8613 34.3516 31.0824 34.6113 31.374C34.8711 31.6611 35.0693 32.012 35.2061 32.4268C35.3428 32.8369 35.4111 33.2995 35.4111 33.8145C35.4111 34.2747 35.3428 34.7054 35.2061 35.1064C35.0739 35.5075 34.8734 35.8607 34.6045 36.166C34.3356 36.4714 33.9961 36.7106 33.5859 36.8838C33.1803 37.0524 32.6995 37.1367 32.1436 37.1367C31.7288 37.1367 31.3301 37.0775 30.9473 36.959C30.569 36.8359 30.2295 36.6559 29.9287 36.4189C29.6279 36.1774 29.3864 35.8812 29.2041 35.5303C29.0218 35.1748 28.917 34.7669 28.8896 34.3066H30.5029C30.5439 34.6302 30.6328 34.9059 30.7695 35.1338C30.9108 35.3571 31.0977 35.528 31.3301 35.6465C31.5625 35.765 31.8314 35.8242 32.1367 35.8242C32.4147 35.8242 32.654 35.7764 32.8545 35.6807C33.055 35.5804 33.2214 35.4391 33.3535 35.2568C33.4902 35.07 33.5905 34.8512 33.6543 34.6006C33.7227 34.3499 33.7568 34.0719 33.7568 33.7666C33.7568 33.4749 33.7181 33.2083 33.6406 32.9668C33.5677 32.7253 33.4561 32.5156 33.3057 32.3379C33.1598 32.1602 32.9753 32.0234 32.752 31.9277C32.5286 31.8275 32.2712 31.7773 31.9795 31.7773C31.5876 31.7773 31.2868 31.8343 31.0771 31.9482C30.8721 32.0622 30.6807 32.2035 30.5029 32.3721Z" fill="white"></path><rect width="64" height="64" fill="#616161"></rect><rect y="31" width="64" height="2" fill="#323232"></rect><rect y="47" width="64" height="2" fill="#323232"></rect><rect x="30.5" y="31" width="2" height="33" fill="#323232"></rect></g><defs><clipPath id="clip0_9398_209521"><rect width="64" height="64" rx="4" fill="white"></rect></clipPath></defs></svg>