<svg width="16" height="17" viewBox="0 0 16 17" fill="none" xmlns="http://www.w3.org/2000/svg">
<path fill-rule="evenodd" clip-rule="evenodd" d="M15.7405 8.19489C15.6003 8.00314 12.2606 3.5 7.99523 3.5C3.72983 3.5 0.389968 8.00314 0.249954 8.1947C0.117203 8.37661 0.117203 8.62332 0.249954 8.80523C0.389968 8.99697 3.72983 13.5001 7.99523 13.5001C12.2606 13.5001 15.6003 8.99694 15.7405 8.80538C15.8734 8.62351 15.8734 8.37661 15.7405 8.19489ZM14.9671 8.50011C14.6827 8.86168 13.9474 9.74315 12.904 10.6089C11.5752 11.7115 9.85334 12.7001 7.99523 12.7001C6.13712 12.7001 4.4152 11.7115 3.08642 10.6089C2.04267 9.74285 1.30728 8.86109 1.02336 8.49999C1.30747 8.13871 2.04282 7.2571 3.08641 6.39118C4.4152 5.28862 6.13712 4.3 7.99523 4.3C9.85334 4.3 11.5752 5.28862 12.904 6.39119C13.9475 7.2571 14.6829 8.13872 14.9671 8.50011ZM15.0945 8.66675C15.0946 8.6669 15.0947 8.66706 15.0948 8.66722L15.0947 8.667C15.0946 8.66692 15.0946 8.66683 15.0945 8.66675Z" fill="#676A6C"/>
<path fill-rule="evenodd" clip-rule="evenodd" d="M7.99412 6.19648C6.72471 6.19648 5.69063 7.23057 5.69063 8.49998C5.69063 9.76939 6.72471 10.8035 7.99412 10.8035C9.26353 10.8035 10.2976 9.76939 10.2976 8.49998C10.2976 7.23057 9.26353 6.19648 7.99412 6.19648ZM4.89062 8.49998C4.89062 6.78875 6.28289 5.39648 7.99412 5.39648C9.70536 5.39648 11.0976 6.78875 11.0976 8.49998C11.0976 10.2112 9.70536 11.6035 7.99412 11.6035C6.28289 11.6035 4.89062 10.2112 4.89062 8.49998Z" fill="#676A6C"/>
</svg>
