<?xml version="1.0" encoding="utf-8"?>
<!-- Generator: Adobe Illustrator 14.0.0, SVG Export Plug-In . SVG Version: 6.00 Build 43363)  -->
<!DOCTYPE svg PUBLIC "-//W3C//DTD SVG 1.1//EN" "http://www.w3.org/Graphics/SVG/1.1/DTD/svg11.dtd">
<svg version="1.1" xmlns="http://www.w3.org/2000/svg" xmlns:xlink="http://www.w3.org/1999/xlink" x="0px" y="0px" width="20px"
	 height="20px" viewBox="0 0 20 20" enable-background="new 0 0 20 20" xml:space="preserve">
<g id="Слой_1" display="none">
	<g id="Слой_1_2_">
		<g id="Слой_1_1_" display="inline">
			<path fill="#808386" d="M7.5,0.083c0.414,0,0.75,0.335,0.75,0.75v1.75h3.5v-1.75c0-0.415,0.336-0.75,0.75-0.75
				s0.75,0.335,0.75,0.75v1.75H15c1.334,0,2.416,1.082,2.416,2.417v1.75h1.75c0.415,0,0.75,0.336,0.75,0.75s-0.335,0.75-0.75,0.75
				h-1.75v2.666h1.75c0.415,0,0.75,0.336,0.75,0.75c0,0.415-0.335,0.75-0.75,0.75h-1.75V15c0,1.334-1.082,2.416-2.416,2.416h-1.75
				v1.75c0,0.415-0.336,0.75-0.75,0.75s-0.75-0.335-0.75-0.75v-1.75h-3.5v1.75c0,0.415-0.336,0.75-0.75,0.75s-0.75-0.335-0.75-0.75
				v-1.75H5c-1.334,0-2.417-1.082-2.417-2.416v-2.584h-1.75c-0.415,0-0.75-0.335-0.75-0.75c0-0.414,0.335-0.75,0.75-0.75h1.75V8.25
				h-1.75c-0.415,0-0.75-0.336-0.75-0.75s0.335-0.75,0.75-0.75h1.75V5c0-1.334,1.082-2.417,2.417-2.417h1.75v-1.75
				C6.75,0.419,7.086,0.083,7.5,0.083z M4.083,11.666V15c0,0.506,0.41,0.916,0.917,0.916h2.5h5H15c0.506,0,0.916-0.41,0.916-0.916
				v-3.334V7.5V5c0-0.506-0.41-0.917-0.916-0.917h-2.5h-5H5c-0.506,0-0.917,0.41-0.917,0.917v2.5V11.666z M7.5,6.75
				c-0.414,0-0.75,0.336-0.75,0.75v5c0,0.414,0.336,0.75,0.75,0.75h5c0.414,0,0.75-0.336,0.75-0.75v-5c0-0.414-0.336-0.75-0.75-0.75
				H7.5z M8.25,11.75v-3.5h3.5v3.5H8.25z"/>
		</g>
		<g id="Слой_2" display="inline">
			<path fill="#808386" d="M18.809,13.23c-0.098,0.098-0.32,0.08-0.32,0.08h-3.821c0.701,1.621,0.944,3.254,0.944,3.254
				s0.016,0.438-0.202,0.656c-0.183,0.18-0.601,0.146-0.601,0.146H4.949c0,0-0.332-0.008-0.508-0.186
				c-0.176-0.176-0.197-0.521-0.197-0.521s0.229-1.813,0.879-3.354H1.208c0,0-0.176-0.004-0.271-0.098s-0.105-0.277-0.105-0.277
				s0.162-1.285,0.643-2.148c0.575-1.03,1.283-1.415,1.283-1.415S2.352,9.111,2.147,8.703C1.97,8.348,1.991,7.834,1.991,7.834
				s0.012-0.727,0.49-1.225C3,6.068,3.736,6.028,3.736,6.028s0.841-0.075,1.437,0.587C5.663,7.16,5.64,7.842,5.64,7.842
				s0.027,0.457-0.161,0.834c-0.196,0.391-0.607,0.7-0.607,0.7s0.884,0.487,1.385,1.481c0.062,0.121,0.118,0.246,0.169,0.371
				c0.768-0.893,1.428-1.25,1.428-1.25S7.091,9.496,6.708,8.731c-0.333-0.667-0.293-1.63-0.293-1.63s0.022-1.364,0.918-2.298
				c0.973-1.014,2.354-1.087,2.354-1.087s1.577-0.142,2.693,1.1c0.919,1.022,0.876,2.3,0.876,2.3s0.049,0.858-0.303,1.563
				c-0.367,0.734-1.137,1.314-1.137,1.314s0.723,0.398,1.482,1.204c0.059-0.143,0.122-0.28,0.195-0.411
				c0.574-1.031,1.281-1.416,1.281-1.416s-0.405-0.258-0.609-0.666c-0.18-0.355-0.154-0.869-0.154-0.869s0.01-0.727,0.487-1.225
				c0.521-0.541,1.256-0.581,1.256-0.581s0.843-0.075,1.437,0.587c0.492,0.545,0.469,1.227,0.469,1.227s0.025,0.457-0.161,0.834
				c-0.196,0.391-0.606,0.7-0.606,0.7s0.883,0.487,1.385,1.48c0.479,0.949,0.641,2.023,0.641,2.023S18.924,13.115,18.809,13.23z
				 M3.815,7.045c-0.458,0-0.83,0.373-0.83,0.83c0,0.459,0.372,0.83,0.83,0.83s0.83-0.371,0.83-0.83
				C4.645,7.418,4.274,7.045,3.815,7.045z M3.796,10.186c-1.337,0.023-1.634,2.083-1.634,2.083h3.382
				C5.544,12.27,5.161,10.161,3.796,10.186z M9.836,5.267c-1.056,0-1.911,0.856-1.911,1.911c0,1.057,0.855,1.912,1.911,1.912
				c1.055,0,1.911-0.855,1.911-1.912C11.747,6.123,10.891,5.267,9.836,5.267z M9.772,11.008c-1.401,0.025-2.317,1-2.903,2.073
				c-0.015,0.052-0.039,0.104-0.077,0.146c-0.669,1.301-0.871,2.69-0.871,2.69h7.97C13.891,15.917,12.988,10.95,9.772,11.008z
				 M15.836,7.045c-0.458,0-0.83,0.373-0.83,0.83c0,0.459,0.372,0.83,0.83,0.83c0.459,0,0.831-0.371,0.831-0.83
				C16.667,7.418,16.295,7.045,15.836,7.045z M15.816,10.186c-1.336,0.023-1.633,2.083-1.633,2.083h3.381
				C17.564,12.27,17.182,10.161,15.816,10.186z"/>
		</g>
		<g id="Слой_3" display="inline">
			<path fill="#808386" d="M19.104,18.816c0,0,0.002,0.396-0.178,0.6c-0.184,0.202-0.547,0.209-0.547,0.209H2.238
				c0,0-0.387,0.046-0.566-0.109c-0.24-0.207-0.291-0.632-0.291-0.632s-0.035-2.124,0.954-3.247
				c1.356-1.543,3.855-2.221,3.855-2.221s0.276-0.08,0.477-0.045c0.185,0.029,0.297,0.176,0.297,0.176l3.245,3.18l2.916-3.129
				c0,0,0.176-0.199,0.381-0.254c0.23-0.063,0.492,0.022,0.492,0.022s2.777,0.661,4.174,2.149
				C19.301,16.723,19.104,18.816,19.104,18.816z M17.178,16.164c-1.051-1.008-3.328-1.611-3.328-1.611l-3.014,3.211
				c0,0-0.297,0.348-0.61,0.348s-0.642-0.348-0.642-0.348l-3.229-3.195c0,0-1.951,0.557-2.887,1.513
				c-0.982,1.003-0.95,2.407-0.95,2.407h15.431C17.949,18.488,18.176,17.124,17.178,16.164z M15.824,6.521
				c-0.355,0.01-0.463-0.435-0.463-0.435s0.16-4.946-5.438-4.936C4.224,1.16,4.47,6.086,4.47,6.086s-0.077,0.47-0.463,0.47
				c-0.358,0-0.529-0.47-0.529-0.47S3.471,5.694,3.576,5.114h-0.56c0,0-0.178,0.043-0.268,0.134
				C2.666,5.331,2.669,5.461,2.669,5.461v2.937c0,0,0.023,0.193,0.12,0.291c0.083,0.083,0.244,0.074,0.244,0.074h0.826
				c0,0,0.736,0.873,1.766,1.525c-0.223-0.667-0.349-1.396-0.349-2.16c0-3.165,0.483-5.552,4.533-5.608
				c4.048-0.055,4.534,2.443,4.534,5.608c0,3.166-2.139,5.731-4.534,5.731c-1.557,0-3.006-1.086-3.829-2.717
				c-1.237-0.601-2.122-1.667-2.122-1.667L2.553,9.442c0,0-0.242-0.047-0.396-0.209c-0.143-0.15-0.198-0.417-0.198-0.417
				l0.016-3.824c0,0,0.029-0.265,0.174-0.426s0.404-0.217,0.404-0.217h1.209C4.277,2.67,5.731,0.38,9.825,0.369
				c6.442-0.017,6.444,5.718,6.444,5.718S16.186,6.511,15.824,6.521z M9.896,3.638C6.611,3.669,6.66,5.955,6.66,5.955
				s0.295-0.183,0.5-0.126c0.142,0.039,0.395,0.255,0.395,0.255S8.6,6.671,9.798,6.671c0.993,0,2.001-0.519,2.001-0.519
				s0.248-0.272,0.543-0.321c0.297-0.05,0.643,0.123,0.643,0.123S12.99,3.608,9.896,3.638z M10.025,12.703
				c3.28-0.055,3.114-5.276,3.114-5.276s-0.063-0.417-0.396-0.453c-0.306-0.033-0.701,0.286-0.701,0.286S10.898,7.734,9.75,7.734
				c-1.143,0-2.293-0.474-2.293-0.474S7.182,6.947,6.952,7.003C6.708,7.061,6.507,7.487,6.507,7.487s-0.096,1.942,0.672,3.457
				C7.827,11.072,8.485,11.047,9,10.984c0.012-0.507,0.439-0.917,0.966-0.917c0.534,0,0.966,0.421,0.966,0.938
				c0,0.521-0.432,0.938-0.966,0.938c-0.343,0-0.644-0.172-0.815-0.437c-0.437,0.062-1.001,0.104-1.58,0.06
				C8.093,12.242,8.871,12.723,10.025,12.703z"/>
		</g>
		<g id="Слой_4" display="inline">
			<path fill="#808386" d="M9.042,12.827V3.962c0,0,0.103-0.6,0.923-0.6c0.788,0,0.924,0.6,0.924,0.6v8.905l2.329-2.117
				c0,0,0.615-0.26,1.153,0.229c0.472,0.431,0.077,0.892,0.077,0.892l-3.671,3.335c0,0-0.347,0.499-0.727,0.499
				c-0.4,0-0.835-0.499-0.835-0.499L5.48,11.809c0,0-0.315-0.461,0.11-0.897c0.406-0.422,1.077-0.183,1.077-0.183L9.042,12.827z
				 M2.646,14.605c0,0,0.19-0.586,0.879-0.58c0.685,0.006,0.901,0.58,0.901,0.58v2.734h11.1v-2.717c0,0,0.17-0.559,0.925-0.579
				c0.688-0.021,0.899,0.579,0.899,0.579V18.3c0,0-0.018,0.296-0.197,0.459C16.949,18.943,16.581,19,16.581,19H3.438
				c0,0-0.356-0.025-0.56-0.21c-0.203-0.185-0.253-0.528-0.253-0.528L2.646,14.605z"/>
		</g>
	</g>
	<g id="Слой_2_1_" display="inline">
		<path fill="#808386" d="M17.288,14.773c-0.077,0.158-0.188,0.318-0.353,0.433c-0.031,0.552-0.215,2.082-1.278,2.838
			c-1.017,0.724-2.87,0.705-3.599,0.667c-0.136,0.46-0.41,0.671-0.41,0.671H8.177c0,0-0.601-0.144-0.601-1.094
			c0-0.929,0.601-1.274,0.601-1.274l3.37-0.02c0,0,0.458,0.296,0.563,0.924c0.709,0.014,2.502-0.01,3.008-0.508
			c0.682-0.674,0.896-1.688,0.959-2.123c-0.588-0.243-0.819-1.028-0.819-1.028l0.103-6.344c0,0,0.168-0.646,0.683-0.834
			c-0.135-1.253-0.976-5.559-6.109-5.545C5.29,1.547,4.094,5.904,3.852,7.112c0.496,0.22,0.722,0.803,0.722,0.803v6.344
			c0,0-0.132,1.099-1.012,1.099c-0.474,0-0.785-0.336-0.967-0.637c-0.56-0.133-2.154-0.74-2.151-3.404
			C0.447,8.733,1.9,7.979,2.533,7.774c0.073-0.182,0.236-0.493,0.535-0.65c0.229-1.311,1.481-6.558,6.831-6.511
			c5.893,0.052,6.764,5.261,6.89,6.529c0.304,0.162,0.498,0.455,0.591,0.63c0.536,0.12,2.183,0.707,2.179,3.41
			C19.555,14.059,17.753,14.666,17.288,14.773z M1.203,11.281c-0.001,1.539,0.771,2.21,1.188,2.461l0.08-5.003
			C2.082,8.873,1.205,9.383,1.203,11.281z M17.447,8.671v5.113c0.328-0.087,1.348-0.519,1.35-2.567
			C18.798,9.445,17.775,8.824,17.447,8.671z"/>
	</g>
</g>
<g id="Слой_2_2_" display="none">
	<g display="inline">
		<defs>
			<rect id="SVGID_1_" width="26" height="26"/>
		</defs>
		<clipPath id="SVGID_2_">
			<use xlink:href="#SVGID_1_"  overflow="visible"/>
		</clipPath>
		<g clip-path="url(#SVGID_2_)">
			<path fill="#333333" d="M1.565,17.213V3.912H0v14.084c0,0.207,0.083,0.406,0.229,0.553c0.147,0.146,0.346,0.229,0.553,0.229
				h17.995v-1.564H1.565z"/>
			<path fill="#333333" d="M7.042,10.954c0-0.208-0.083-0.406-0.229-0.554c-0.146-0.146-0.346-0.229-0.553-0.229H3.912
				c-0.208,0-0.406,0.083-0.553,0.229c-0.146,0.147-0.229,0.346-0.229,0.554v5.477h3.912V10.954z"/>
			<path fill="#333333" d="M12.519,7.824c0-0.208-0.083-0.407-0.229-0.553c-0.146-0.147-0.346-0.229-0.553-0.229H9.389
				c-0.208,0-0.406,0.083-0.553,0.229C8.689,7.417,8.606,7.617,8.606,7.824v8.606h3.912V7.824z"/>
			<path fill="#333333" d="M17.995,4.694c0-0.208-0.082-0.406-0.229-0.553c-0.146-0.146-0.346-0.229-0.553-0.229h-2.348
				c-0.207,0-0.406,0.083-0.553,0.229c-0.146,0.147-0.229,0.346-0.229,0.553v11.736h3.911V4.694z"/>
		</g>
	</g>
</g>
<g id="Слой_3_1_" display="none">
	<g display="inline">
		<defs>
			<rect id="SVGID_3_" width="26" height="26"/>
		</defs>
		<clipPath id="SVGID_4_">
			<use xlink:href="#SVGID_3_"  overflow="visible"/>
		</clipPath>
		<g clip-path="url(#SVGID_4_)">
			<path fill="#A0CF4D" d="M1.565,17.213V3.912H0v14.084c0,0.207,0.083,0.406,0.229,0.553c0.147,0.146,0.346,0.229,0.553,0.229
				h17.995v-1.564H1.565z"/>
			<path fill="#A0CF4D" d="M7.042,10.953c0-0.207-0.083-0.406-0.229-0.553c-0.146-0.146-0.346-0.229-0.553-0.229H3.912
				c-0.208,0-0.406,0.083-0.553,0.229c-0.146,0.146-0.229,0.346-0.229,0.553v5.478h3.912V10.953z"/>
			<path fill="#A0CF4D" d="M12.519,7.824c0-0.208-0.083-0.407-0.229-0.553c-0.146-0.147-0.346-0.229-0.553-0.229H9.389
				c-0.208,0-0.406,0.083-0.553,0.229C8.689,7.417,8.606,7.617,8.606,7.824v8.606h3.912V7.824z"/>
			<path fill="#A0CF4D" d="M17.995,4.694c0-0.208-0.082-0.406-0.229-0.553c-0.146-0.146-0.346-0.229-0.553-0.229h-2.348
				c-0.207,0-0.406,0.083-0.553,0.229c-0.146,0.147-0.229,0.346-0.229,0.553v11.736h3.911V4.694z"/>
		</g>
	</g>
</g>
<g id="Слой_4_1_">
	<g>
		<g>
			<path fill-rule="evenodd" clip-rule="evenodd" fill="#333333" d="M4.251,16.026H1.582V1.584h11.513v4.441
				c0,0,0.368,0.098,0.728,0.335c0.412,0.272,0.7,0.689,0.7,0.689v-5.22c0,0,0.018-0.882-0.356-1.256
				C13.649,0.057,12.691,0,12.691,0H1.708c0,0-0.833,0.057-1.227,0.451C0.026,0.906,0,1.708,0,1.708v14.319
				c0,0,0.054,0.706,0.45,1.102c0.396,0.396,1.132,0.481,1.132,0.481h4.003c0,0-0.556-0.347-0.892-0.69
				C4.363,16.581,4.251,16.026,4.251,16.026z M14.458,16.468c1.037-1.105,1.672-2.592,1.672-4.227c0-3.415-2.767-6.182-6.182-6.182
				c-1.191,0-2.303,0.337-3.247,0.921H3.91c0,0-0.455,0.162-0.429,0.77C3.506,8.366,3.91,8.471,3.91,8.471h1.14
				c-0.804,1.043-1.282,2.35-1.282,3.77c0,3.414,2.767,6.182,6.181,6.182c1.211,0,2.34-0.348,3.292-0.949l2.546,2.38l1.027-1.028
				L14.458,16.468z M9.98,16.79c-2.503,0-4.531-2.027-4.531-4.529c0-2.503,2.028-4.531,4.531-4.531c2.501,0,4.53,2.028,4.53,4.531
				C14.511,14.763,12.481,16.79,9.98,16.79z M4.085,3.27c-0.264,0-0.477,0.328-0.477,0.732s0.213,0.733,0.477,0.733h6.676
				c0.264,0,0.477-0.328,0.477-0.733S11.024,3.27,10.761,3.27H4.085z M11.831,12.9c-0.429,1.312-1.914,2.835-1.914,2.835
				l-0.104,0.151c0,0,2.537-1.46,2.994-2.902c0.451-1.421-0.963-3.547-0.963-3.547S12.297,11.478,11.831,12.9z"/>
		</g>
	</g>
</g>
</svg>
