<svg xmlns="http://www.w3.org/2000/svg" width="22" height="18" viewBox="1 3 22 18" fill="none">
<path d="M20.4148 8.6338C20.2466 8.40371 16.239 3 11.1206 3C6.00218 3 1.9944 8.40371 1.82638 8.63358C1.66708 8.85186 1.66708 9.14792 1.82638 9.3662C1.9944 9.59629 6.00218 15 11.1206 15C16.239 15 20.2466 9.59625 20.4148 9.36638C20.5744 9.14814 20.5744 8.85186 20.4148 8.6338ZM11.1206 13.7586C7.35034 13.7586 4.08489 10.1721 3.11825 8.99958C4.08364 7.82605 7.34225 4.24137 11.1206 4.24137C14.8907 4.24137 18.1559 7.8273 19.123 9.00042C18.1576 10.1739 14.899 13.7586 11.1206 13.7586Z" fill="#7BB247"/>
<path d="M11.1206 5.27582C9.06718 5.27582 7.39648 6.94651 7.39648 8.99997C7.39648 11.0534 9.06718 12.7241 11.1206 12.7241C13.1741 12.7241 14.8448 11.0534 14.8448 8.99997C14.8448 6.94651 13.1741 5.27582 11.1206 5.27582ZM11.1206 11.4827C9.75159 11.4827 8.63789 10.369 8.63789 8.99997C8.63789 7.63096 9.75163 6.51723 11.1206 6.51723C12.4897 6.51723 13.6034 7.63096 13.6034 8.99997C13.6034 10.369 12.4897 11.4827 11.1206 11.4827Z" fill="#7BB247"/>
</svg>
