<?xml version="1.0" encoding="utf-8"?>
<svg xmlns="http://www.w3.org/2000/svg" width="22" height="18" viewBox="2 0 15 15" fill="none">
<style type="text/css">
	.st0{display:none;}
	.st1{display:inline;fill:#3E7F1C;}
	.st2{display:inline;fill:#A0CF4D;}
	.st3{fill:none;stroke:#7BB247;stroke-width:1.6;stroke-linecap:square;stroke-linejoin:round;}
</style>
<g id="Слой_3" class="st0">
	<rect class="st1" width="18" height="14"/>
	<rect x="0.1" y="0.1" class="st1" width="17.8" height="13.9"/>
</g>
<g id="Слой_1_1_" class="st0">
	<path class="st2" d="M16.8,12.9H5.1c-0.5,0-0.9-0.4-0.9-0.9s0.4-0.9,0.9-0.9h11.7c0.5,0,0.9,0.4,0.9,0.9
		C17.7,12.5,17.3,12.9,16.8,12.9z"/>
	<path class="st2" d="M16.8,7.4H5.1C4.7,7.4,4.3,7,4.3,6.6s0.4-0.9,0.9-0.9h11.7c0.5,0,0.9,0.4,0.9,0.9C17.7,7,17.3,7.4,16.8,7.4z"
		/>
	<path class="st2" d="M16.8,2H5.1C4.7,2,4.3,1.6,4.3,1.1s0.4-0.9,0.9-0.9h11.7c0.5,0,0.9,0.4,0.9,0.9C17.7,1.6,17.3,2,16.8,2z"/>
	<path class="st2" d="M1.4,2.3c0.6,0,1.2-0.5,1.2-1.2C2.6,0.5,2.1,0,1.4,0C0.8,0,0.2,0.5,0.2,1.2C0.2,1.8,0.8,2.3,1.4,2.3z"/>
	<path class="st2" d="M1.4,7.7c0.6,0,1.2-0.5,1.2-1.2S2.1,5.4,1.4,5.4c-0.6,0-1.2,0.5-1.2,1.2S0.8,7.7,1.4,7.7z"/>
	<path class="st2" d="M1.4,13.1c0.6,0,1.2-0.5,1.2-1.2c0-0.6-0.5-1.2-1.2-1.2c-0.6,0-1.2,0.5-1.2,1.2C0.2,12.6,0.8,13.1,1.4,13.1z"
		/>
</g>
<g id="Слой_2">
	<g id="Слой_7">
		<path class="st3" d="M11.7,7.2v-3c0-1-0.7-1.8-2.1-1.8H3.3C1.9,2.4,1,3.6,1,4.6v5.2c0,1,0.9,2.2,2.4,2.2h5.9
			c1.4,0,2.4-0.8,2.4-1.8L11.7,7.2 M16.9,10.2L12.4,7l4.5-3.2V10.2z"/>
	</g>
</g>
</svg>
