<svg width="18" height="18" viewBox="0 0 18 18" fill="none" xmlns="http://www.w3.org/2000/svg">
    <g clip-path="url(#clip0)">
        <path d="M16.1881 8.28872C15.6474 8.89569 15.1177 9.54954 14.748 10.4517C14.5797 10.8682 14.1797 11.1386 13.7299 11.1386C13.2775 11.1386 12.8775 10.8682 12.7064 10.4489C12.2788 9.40051 11.6304 8.68601 11.0014 7.99628C10.8442 7.82248 10.6869 7.64866 10.5324 7.46933C10.5242 7.4721 10.5186 7.47486 10.5104 7.4776C9.89791 7.66242 9.42612 8.47354 9.7103 9.13292C9.90341 9.58536 11.258 9.49986 11.1422 10.4737C11.0456 11.271 12.0884 11.4807 12.4581 11.4421C12.8278 11.398 13.3961 12.0491 13.1092 12.336C12.8251 12.6229 12.2871 12.634 12.3698 13.3733C12.3919 13.5885 13.043 13.561 13.043 13.8865C13.043 14.2148 12.7065 14.5872 12.9658 14.9652C13.021 15.048 13.0789 15.1114 13.1396 15.1611C11.8926 16.3088 10.229 17.0123 8.40536 17.0123C4.55121 17.0123 1.41712 13.8782 1.41712 10.024C1.41712 8.85431 1.70683 7.75072 2.21721 6.7796C2.21444 8.03489 2.88486 9.07775 3.19936 9.39225C4.22565 10.4158 5.71271 10.093 5.90303 10.951C6.09615 11.8062 4.88224 11.809 4.96227 12.4628C5.045 13.1195 6.62586 13.2933 6.27274 13.8975C5.80647 14.7003 6.58724 14.7582 6.36103 15.7486C6.23965 16.2894 7.02038 16.3942 7.31009 15.9832C7.5308 15.6687 7.48665 15.2824 7.93083 14.8107C8.47433 14.2313 9.73515 14.1375 9.59441 13.1801C9.35441 11.591 7.80944 11.3427 7.13627 10.9702C6.37206 10.5509 6.55968 9.54392 6.39412 9.06389C6.16239 8.38245 5.37609 9.25428 4.95674 8.85698C4.26703 8.20589 5.08088 7.28442 5.66024 7.30375C6.88241 7.34236 7.25762 8.53145 7.7073 8.49004C8.14597 8.45142 8.43015 7.83895 8.50739 7.51342C8.67018 6.80439 8.2315 7.12166 8.05494 6.75195C7.81768 6.25813 8.88812 5.78636 9.30194 5.42219C9.36541 5.36701 9.4123 5.3146 9.43712 5.26492C9.56133 5.02216 9.39853 4.83731 9.12262 4.66901C8.57088 4.33516 7.56389 4.07033 7.517 3.54892C7.48939 3.22886 8.10188 3.07439 8.79986 3.04681C8.91571 3.05233 9.02883 3.06336 9.14474 3.07439C9.20265 2.74607 9.29644 2.42328 9.42336 2.11431C9.08953 2.07016 8.75021 2.04807 8.40533 2.04807C4.00768 2.04807 0.429443 5.62631 0.429443 10.024C0.429414 14.4217 4.00768 18 8.40533 18C12.803 18 16.3813 14.4217 16.3813 10.0241C16.3813 9.42816 16.315 8.84604 16.1881 8.28872ZM13.3547 0.0177167C11.1031 0.23054 9.561 2.41222 9.95397 4.63942C10.353 6.90181 12.439 7.59819 13.4741 10.1377C13.5674 10.3666 13.8896 10.3677 13.9829 10.1388C15.1304 7.32219 17.5704 6.77251 17.5704 3.8416C17.5704 1.59651 15.6445 -0.198725 13.3547 0.0177167ZM13.7287 5.87036C12.6083 5.87036 11.6999 4.96207 11.6999 3.8416C11.6999 2.72116 12.6083 1.81286 13.7287 1.81286C14.8492 1.81286 15.7575 2.72116 15.7575 3.8416C15.7575 4.96204 14.8491 5.87036 13.7287 5.87036Z" fill="#F6F6F6"/>
    </g>
    <defs>
        <clipPath id="clip0">
            <rect width="18" height="18" fill="white" transform="matrix(-1 0 0 1 18 0)"/>
        </clipPath>
    </defs>
</svg>