<svg width="56" height="56" viewBox="0 0 56 56" fill="none" xmlns="http://www.w3.org/2000/svg">
<path fill-rule="evenodd" clip-rule="evenodd" d="M46.0662 19.661C41.2628 15.6752 34.9253 12 27.9998 12C21.0742 12 14.7365 15.6752 9.93304 19.6609C5.45386 23.3775 2.54044 27.1716 2.03708 27.8459C2.5387 28.5181 5.45247 32.3135 9.93306 36.0313C14.7365 40.0171 21.0742 43.6923 27.9998 43.6923C34.9253 43.6923 41.2628 40.0171 46.0662 36.0314C50.5437 32.3162 53.4566 28.5235 53.9623 27.8464C53.4584 27.1714 50.545 23.3774 46.0662 19.661ZM55.6441 28.9359C55.1439 29.6196 43.2238 45.6923 27.9998 45.6923C12.7757 45.6923 0.855096 29.6197 0.35536 28.9354C-0.118453 28.2861 -0.118453 27.4055 0.35536 26.7563C0.855096 26.0726 12.7757 10 27.9998 10C43.2238 10 55.1439 26.0726 55.6441 26.7569C56.1186 27.4055 56.1186 28.2868 55.6441 28.9359Z" fill="#B2B2B2"/>
<path fill-rule="evenodd" clip-rule="evenodd" d="M27.9998 18.7695C22.9967 18.7695 18.9229 22.8433 18.9229 27.8465C18.9229 32.8497 22.9967 36.9235 27.9998 36.9235C33.003 36.9235 37.0768 32.8497 37.0768 27.8465C37.0768 22.8433 33.003 18.7695 27.9998 18.7695ZM16.9229 27.8465C16.9229 21.7388 21.8921 16.7695 27.9998 16.7695C34.1076 16.7695 39.0768 21.7388 39.0768 27.8465C39.0768 33.9543 34.1076 38.9235 27.9998 38.9235C21.8921 38.9235 16.9229 33.9543 16.9229 27.8465Z" fill="#B2B2B2"/>
</svg>
