<svg width="22" height="18" viewBox="0 0 22 18" fill="none" xmlns="http://www.w3.org/2000/svg">
<path d="M20.415 8.6338C20.2468 8.40371 16.2392 3 11.1207 3C6.0023 3 1.99452 8.40371 1.82651 8.63358C1.66721 8.85186 1.66721 9.14792 1.82651 9.3662C1.99452 9.59629 6.0023 15 11.1207 15C16.2392 15 20.2468 9.59625 20.415 9.36638C20.5745 9.14814 20.5745 8.85186 20.415 8.6338ZM11.1207 13.7586C7.35046 13.7586 4.08501 10.1721 3.11837 8.99958C4.08376 7.82605 7.34237 4.24137 11.1207 4.24137C14.8908 4.24137 18.1561 7.8273 19.1231 9.00042C18.1577 10.1739 14.8991 13.7586 11.1207 13.7586Z" fill="#F6F6F6"/>
<path d="M11.1206 5.27588C9.06718 5.27588 7.39648 6.94657 7.39648 9.00003C7.39648 11.0535 9.06718 12.7242 11.1206 12.7242C13.1741 12.7242 14.8448 11.0535 14.8448 9.00003C14.8448 6.94657 13.1741 5.27588 11.1206 5.27588ZM11.1206 11.4828C9.75159 11.4828 8.63789 10.369 8.63789 9.00003C8.63789 7.63102 9.75163 6.51729 11.1206 6.51729C12.4897 6.51729 13.6034 7.63102 13.6034 9.00003C13.6034 10.369 12.4897 11.4828 11.1206 11.4828Z" fill="#F6F6F6"/>
</svg>
