<svg width="18" height="18" viewBox="0 0 18 18" fill="none" xmlns="http://www.w3.org/2000/svg">
    <g clip-path="url(#clip0)">
        <path d="M16.1882 8.28872C15.6474 8.89569 15.1177 9.54954 14.748 10.4517C14.5798 10.8682 14.1797 11.1386 13.73 11.1386C13.2776 11.1386 12.8775 10.8682 12.7065 10.4489C12.2788 9.40051 11.6305 8.68601 11.0015 7.99628C10.8442 7.82248 10.687 7.64866 10.5325 7.46933C10.5242 7.4721 10.5187 7.47486 10.5104 7.4776C9.89797 7.66242 9.42618 8.47354 9.71036 9.13292C9.90347 9.58536 11.2581 9.49986 11.1422 10.4737C11.0457 11.271 12.0885 11.4807 12.4582 11.4421C12.8279 11.398 13.3962 12.0491 13.1093 12.336C12.8252 12.6229 12.2871 12.634 12.3699 13.3733C12.3919 13.5885 13.0431 13.561 13.0431 13.8865C13.0431 14.2148 12.7065 14.5872 12.9658 14.9652C13.021 15.048 13.0789 15.1114 13.1397 15.1611C11.8927 16.3088 10.229 17.0123 8.40542 17.0123C4.55127 17.0123 1.41718 13.8782 1.41718 10.024C1.41718 8.85431 1.70689 7.75072 2.21727 6.7796C2.2145 8.03489 2.88492 9.07775 3.19942 9.39225C4.22571 10.4158 5.71277 10.093 5.90309 10.951C6.09621 11.8062 4.8823 11.809 4.96233 12.4628C5.04506 13.1195 6.62592 13.2933 6.2728 13.8975C5.80653 14.7003 6.5873 14.7582 6.36109 15.7486C6.23971 16.2894 7.02045 16.3942 7.31015 15.9832C7.53086 15.6687 7.48671 15.2824 7.93089 14.8107C8.47439 14.2313 9.73521 14.1375 9.59447 13.1801C9.35448 11.591 7.8095 11.3427 7.13633 10.9702C6.37212 10.5509 6.55974 9.54392 6.39418 9.06389C6.16245 8.38245 5.37615 9.25428 4.9568 8.85698C4.26709 8.20589 5.08095 7.28442 5.6603 7.30375C6.88248 7.34236 7.25768 8.53145 7.70736 8.49004C8.14603 8.45142 8.43021 7.83895 8.50745 7.51342C8.67024 6.80439 8.23156 7.12166 8.05501 6.75195C7.81774 6.25813 8.88818 5.78636 9.302 5.42219C9.36547 5.36701 9.41236 5.3146 9.43718 5.26492C9.56139 5.02216 9.39859 4.83731 9.12268 4.66901C8.57095 4.33516 7.56395 4.07033 7.51706 3.54892C7.48945 3.22886 8.10195 3.07439 8.79992 3.04681C8.91577 3.05233 9.02889 3.06336 9.1448 3.07439C9.20271 2.74607 9.2965 2.42328 9.42342 2.11431C9.08959 2.07016 8.75027 2.04807 8.40539 2.04807C4.00774 2.04807 0.429504 5.62631 0.429504 10.024C0.429475 14.4217 4.00774 18 8.40539 18C12.803 18 16.3813 14.4217 16.3813 10.0241C16.3813 9.42816 16.3151 8.84604 16.1882 8.28872ZM13.3547 0.0177167C11.1032 0.23054 9.56106 2.41222 9.95403 4.63942C10.3531 6.90181 12.439 7.59819 13.4742 10.1377C13.5675 10.3666 13.8897 10.3677 13.9829 10.1388C15.1305 7.32219 17.5704 6.77251 17.5704 3.8416C17.5704 1.59651 15.6445 -0.198725 13.3547 0.0177167ZM13.7288 5.87036C12.6083 5.87036 11.7 4.96207 11.7 3.8416C11.7 2.72116 12.6083 1.81286 13.7288 1.81286C14.8493 1.81286 15.7575 2.72116 15.7575 3.8416C15.7575 4.96204 14.8492 5.87036 13.7288 5.87036Z" fill="#A0CF4D"/>
    </g>
    <defs>
        <clipPath id="clip0">
            <rect width="18" height="18" fill="white" transform="matrix(-1 0 0 1 18 0)"/>
        </clipPath>
    </defs>
</svg>