<svg width="80" height="47" viewBox="0 0 80 47" fill="none" xmlns="http://www.w3.org/2000/svg">
<path opacity="0.25" fill-rule="evenodd" clip-rule="evenodd" d="M0 12.5496C0 5.97442 5.0355 0 12.8337 0H42.2301C46.8731 0 50.1499 1.94191 52.2231 4.76406C54.2523 7.52641 55.0626 11.0334 55.0638 14.1687C55.0638 14.1711 55.0638 14.1735 55.0638 14.1759L55.1652 23.8253L55.1652 32.8241C55.1652 36.291 54.0963 39.8175 51.869 42.5032C49.6147 45.2215 46.234 47 41.8246 47H13.3406C13.3075 47 13.2744 46.9988 13.2414 46.9964C5.1528 46.4119 0 41.1573 0 34.4504V12.5496ZM12.8337 2.76471C6.64337 2.76471 2.75862 7.41542 2.75862 12.5496V34.4504C2.75862 39.4412 6.50841 43.7191 13.3911 44.2353H41.8246C45.4232 44.2353 48.0231 42.8154 49.7475 40.7361C51.4988 38.6243 52.4065 35.754 52.4065 32.8241V23.8253L52.3053 14.1904L52.3052 14.1759C52.3052 11.4584 51.5946 8.57182 50.0016 6.40318C48.4509 4.29223 46.0005 2.76471 42.2301 2.76471H12.8337ZM77.2414 11.9345C77.2414 10.8231 75.999 10.1661 75.0835 10.7934L59.3139 21.6C58.5128 22.1489 58.5128 23.3332 59.3139 23.8822L75.0835 34.6887C75.999 35.316 77.2414 34.659 77.2414 33.5476V11.9345ZM73.5265 8.51124C76.2729 6.62923 80 8.60021 80 11.9345V33.5476C80 36.8819 76.2729 38.8529 73.5265 36.9709L57.7568 26.1644C55.3537 24.5176 55.3537 20.9646 57.7568 19.3178L73.5265 8.51124Z" fill="#B3B3B3"/>
</svg>
