<svg width="30" height="26" viewBox="0 0 30 26" fill="none" xmlns="http://www.w3.org/2000/svg">
    <rect x="0.444336" width="5.28955" height="4.76059" rx="1" fill="#A0CF4D"/>
    <rect x="8.37842" width="5.28955" height="4.76059" rx="1" fill="#A0CF4D"/>
    <rect x="16.313" width="5.28955" height="4.76059" rx="1" fill="#A0CF4D"/>
    <rect x="0.444336" y="7.14075" width="5.28955" height="4.76059" rx="1" fill="#A0CF4D"/>
    <rect x="8.37842" y="7.14075" width="5.28955" height="4.76059" rx="1" fill="#A0CF4D"/>
    <rect x="16.313" y="7.14075" width="5.28955" height="4.76059" rx="1" fill="#A0CF4D"/>
    <rect x="0.444336" y="14.2817" width="5.28955" height="4.76059" rx="1" fill="#A0CF4D"/>
    <rect x="8.37842" y="14.2817" width="5.28955" height="4.76059" rx="1" fill="#A0CF4D"/>
    <rect x="16.313" y="14.2817" width="5.28955" height="4.76059" rx="1" fill="#A0CF4D"/>
    <rect x="24.6133" width="5.28955" height="4.76059" rx="1" fill="#A0CF4D"/>
    <rect x="24.6133" y="7.14075" width="5.28955" height="4.76059" rx="1" fill="#A0CF4D"/>
    <rect x="24.6133" y="14.2817" width="5.28955" height="4.76059" rx="1" fill="#A0CF4D"/>
    <rect x="0.444336" y="21.2395" width="5.28955" height="4.76059" rx="1" fill="#A0CF4D"/>
    <rect x="8.37842" y="21.2395" width="5.28955" height="4.76059" rx="1" fill="#A0CF4D"/>
    <rect x="16.313" y="21.2395" width="5.28955" height="4.76059" rx="1" fill="#A0CF4D"/>
    <rect x="24.6133" y="21.2395" width="5.28955" height="4.76059" rx="1" fill="#A0CF4D"/>
</svg>