<svg width="30" height="26" viewBox="0 0 30 26" fill="none" xmlns="http://www.w3.org/2000/svg">
    <rect x="0.44458" width="5.28955" height="4.76059" rx="1" fill="#ffffff"/>
    <rect x="8.37866" width="5.28955" height="4.76059" rx="1" fill="#ffffff"/>
    <rect x="16.3132" width="5.28955" height="4.76059" rx="1" fill="#ffffff"/>
    <rect x="0.44458" y="7.14075" width="5.28955" height="4.76059" rx="1" fill="#ffffff"/>
    <rect x="8.37866" y="7.14075" width="5.28955" height="4.76059" rx="1" fill="#ffffff"/>
    <rect x="16.3132" y="7.14075" width="5.28955" height="4.76059" rx="1" fill="#ffffff"/>
    <rect x="0.44458" y="14.2817" width="5.28955" height="4.76059" rx="1" fill="#ffffff"/>
    <rect x="8.37866" y="14.2817" width="5.28955" height="4.76059" rx="1" fill="#ffffff"/>
    <rect x="16.3132" y="14.2817" width="5.28955" height="4.76059" rx="1" fill="#ffffff"/>
    <rect x="24.6135" width="5.28955" height="4.76059" rx="1" fill="#ffffff"/>
    <rect x="24.6135" y="7.14075" width="5.28955" height="4.76059" rx="1" fill="#ffffff"/>
    <rect x="24.6135" y="14.2817" width="5.28955" height="4.76059" rx="1" fill="#ffffff"/>
    <rect x="0.44458" y="21.2395" width="5.28955" height="4.76059" rx="1" fill="#ffffff"/>
    <rect x="8.37866" y="21.2395" width="5.28955" height="4.76059" rx="1" fill="#ffffff"/>
    <rect x="16.3132" y="21.2395" width="5.28955" height="4.76059" rx="1" fill="#ffffff"/>
    <rect x="24.6135" y="21.2395" width="5.28955" height="4.76059" rx="1" fill="#ffffff"/>
</svg>