<svg width="8" height="9" viewBox="0 0 8 9" fill="none" xmlns="http://www.w3.org/2000/svg">
<path fill-rule="evenodd" clip-rule="evenodd" d="M4.18192 6.68197C3.98666 6.87723 3.67008 6.87723 3.47482 6.68197L0.646389 3.85354C0.451126 3.65828 0.451127 3.3417 0.646389 3.14644C0.841651 2.95117 1.15823 2.95117 1.3535 3.14644L4.18192 5.97486C4.37718 6.17012 4.37718 6.48671 4.18192 6.68197Z" fill="#7BB247"/>
<path fill-rule="evenodd" clip-rule="evenodd" d="M3.47477 6.68192C3.27951 6.48666 3.27951 6.17008 3.47477 5.97482L6.3032 3.14639C6.49846 2.95113 6.81504 2.95113 7.0103 3.14639C7.20557 3.34165 7.20557 3.65823 7.0103 3.8535L4.18188 6.68192C3.98661 6.87718 3.67003 6.87718 3.47477 6.68192Z" fill="#7BB247"/>
</svg>
