<svg width="30" height="30" viewBox="0 0 30 30" fill="none" xmlns="http://www.w3.org/2000/svg">
<ellipse cx="15" cy="14.9477" rx="15" ry="14.9128" fill="#414DE0" fill-opacity="0.5"/>
<ellipse cx="15" cy="14.9478" rx="11" ry="10.936" fill="#414DE0"/>
<path d="M16.5458 10.9051L13.6292 9.88424C13.3842 9.79674 13.1158 9.79674 12.8708 9.87841L10.5433 10.6601C10.0708 10.8234 9.75 11.2667 9.75 11.7684V18.6809C9.75 19.5034 10.5725 20.0634 11.3367 19.7659L13.0458 19.1009C13.1742 19.0484 13.32 19.0484 13.4483 19.0951L16.365 20.1159C16.61 20.2034 16.8783 20.2034 17.1233 20.1217L19.4508 19.3401C19.9233 19.1826 20.2442 18.7334 20.2442 18.2317V11.3192C20.2442 10.4967 19.4217 9.93674 18.6575 10.2342L16.9483 10.8992C16.82 10.9459 16.68 10.9517 16.5458 10.9051ZM16.75 19.0192L13.25 17.7884V10.9809L16.75 12.2117V19.0192Z" fill="white"/>
</svg>
